<svg width="180" height="180" viewBox="0 0 180 180" fill="none" xmlns="http://www.w3.org/2000/svg">
  <rect width="180" height="180" rx="40" fill="url(#gradient)"/>
  <path d="M72.4876 127.5H107.512M90 22.5V30M136.365 43.6396L131.413 48.5916M157.5 90H148.5M30 90H22.5M48.5916 48.5916L43.6396 43.6396M65.2314 108.75C53.5714 100.303 45 86.7857 45 71.25C45 48.4821 64.8214 30 90 30C115.179 30 135 48.4821 135 71.25C135 86.7857 126.429 100.303 114.769 108.75L111.429 111.161C108.214 113.036 106.607 114.107 105.536 115.893C104.464 117.679 103.929 119.821 102.857 123.393L101.786 127.5C101.786 135.804 96.4286 142.5 88.5 142.5H91.5C83.5714 142.5 78.2143 135.804 78.2143 127.5L77.1429 123.393C76.0714 119.821 75.5357 117.679 74.4643 115.893C73.3929 114.107 71.7857 113.036 68.5714 111.161L65.2314 108.75Z" stroke="white" stroke-width="8" stroke-linecap="round" stroke-linejoin="round"/>
  <defs>
    <linearGradient id="gradient" x1="0" y1="0" x2="180" y2="180" gradientUnits="userSpaceOnUse">
      <stop stop-color="#1447E6"/>
      <stop offset="1" stop-color="#0A2E8C"/>
    </linearGradient>
  </defs>
</svg>
