<svg width="32" height="32" viewBox="0 0 32 32" fill="none" xmlns="http://www.w3.org/2000/svg">
  <rect width="32" height="32" rx="6" fill="url(#gradient)"/>
  <path d="M12.8867 22.6667H19.1134M16 4V5.33333M24.2426 7.75736L23.2948 8.70518M28 16H26.6667M5.33333 16H4M8.70518 8.70518L7.75736 7.75736M11.6189 19.3333C9.52381 17.8095 8 15.4286 8 12.6667C8 8.61905 11.5238 5.33333 16 5.33333C20.4762 5.33333 24 8.61905 24 12.6667C24 15.4286 22.4762 17.8095 20.381 19.3333L19.8095 19.7143C19.2381 20.0952 18.9524 20.2857 18.7619 20.5714C18.5714 20.8571 18.4762 21.2381 18.381 21.9048L18.2857 22.6667C18.2857 24.1429 17.1429 25.3333 15.7143 25.3333H16.2857C14.8571 25.3333 13.7143 24.1429 13.7143 22.6667L13.619 21.9048C13.5238 21.2381 13.4286 20.8571 13.2381 20.5714C13.0476 20.2857 12.7619 20.0952 12.1905 19.7143L11.6189 19.3333Z" stroke="white" stroke-width="2" stroke-linecap="round" stroke-linejoin="round"/>
  <defs>
    <linearGradient id="gradient" x1="0" y1="0" x2="32" y2="32" gradientUnits="userSpaceOnUse">
      <stop stop-color="#1447E6"/>
      <stop offset="1" stop-color="#0A2E8C"/>
    </linearGradient>
  </defs>
</svg>
